<?xml version="1.0" encoding="utf-8" ?>
<!DOCTYPE svg PUBLIC "-//W3C//DTD SVG 1.1//EN" "http://www.w3.org/Graphics/SVG/1.1/DTD/svg11.dtd">
<svg height="581" version="1.1" width="966" xmlns="http://www.w3.org/2000/svg">
<rect fill="#ffffff" height="169" stroke="#ffffff" stroke-width="1" width="192" x="430" y="398"/>
<rect fill="none" height="169" stroke="#000000" stroke-width="1" width="192" x="430" y="398"/>
<text font-family="Lucida Grande" font-size="13" x="504" y="412">
Course</text>
<rect fill="#000000" height="1" stroke="#000000" stroke-width="1" width="192" x="430" y="422"/>
<text font-family="Lucida Grande" font-size="13" x="434" y="437">
id : Integer</text>
<text font-family="Lucida Grande" font-size="13" x="434" y="454">
date : Integer</text>
<text font-family="Lucida Grande" font-size="13" x="434" y="471">
date_range : Integer</text>
<text font-family="Lucida Grande" font-size="13" x="434" y="488">
comment : String</text>
<text font-family="Lucida Grande" font-size="13" x="434" y="505">
max_portions : Integer</text>
<text font-family="Lucida Grande" font-size="13" x="434" y="522">
reserved_portions : Integer</text>
<text font-family="Lucida Grande" font-size="13" x="434" y="539">
recipe : Recipe</text>
<text font-family="Lucida Grande" font-size="13" x="434" y="556">
location : Metro_station</text>
<rect fill="#ffffff" height="152" stroke="#ffffff" stroke-width="1" width="192" x="430" y="110"/>
<rect fill="none" height="152" stroke="#000000" stroke-width="1" width="192" x="430" y="110"/>
<text font-family="Lucida Grande" font-size="13" x="505" y="124">
Recipe</text>
<rect fill="#000000" height="1" stroke="#000000" stroke-width="1" width="192" x="430" y="134"/>
<text font-family="Lucida Grande" font-size="13" x="434" y="149">
id : Integer</text>
<text font-family="Lucida Grande" font-size="13" x="434" y="166">
title : String</text>
<text font-family="Lucida Grande" font-size="13" x="434" y="183">
ingredients : String</text>
<text font-family="Lucida Grande" font-size="13" x="434" y="200">
owner : Member</text>
<rect fill="#ffffff" height="168" stroke="#ffffff" stroke-width="1" width="200" x="102" y="398"/>
<rect fill="none" height="168" stroke="#000000" stroke-width="1" width="200" x="102" y="398"/>
<text font-family="Lucida Grande" font-size="13" x="165" y="412">
Reservation</text>
<rect fill="#000000" height="1" stroke="#000000" stroke-width="1" width="200" x="102" y="422"/>
<text font-family="Lucida Grande" font-size="13" x="106" y="437">
id : Integer</text>
<text font-family="Lucida Grande" font-size="13" x="106" y="454">
coupon : String</text>
<text font-family="Lucida Grande" font-size="13" x="106" y="471">
portions : Integer</text>
<text font-family="Lucida Grande" font-size="13" x="106" y="488">
owner : Member</text>
<text font-family="Lucida Grande" font-size="13" x="106" y="505">
course : Course</text>
<polyline fill="none" points="302,440 430,440" stroke="#000000" stroke-width="1"/>
<line fill="#000000" stroke="#000000" stroke-width="1" x1="418" x2="430" y1="447" y2="440"/>
<line fill="#000000" stroke="#000000" stroke-width="1" x1="418" x2="430" y1="433" y2="440"/>
<text font-family="Lucida Grande" font-size="13" x="332" y="422">
is made on</text>
<text font-family="Lucida Grande" font-size="13" x="306" y="435">
0..*</text>
<text font-family="Lucida Grande" font-size="13" x="411" y="435">
1</text>
<rect fill="#ffffff" height="152" stroke="#ffffff" stroke-width="1" width="200" x="102" y="110"/>
<rect fill="none" height="152" stroke="#000000" stroke-width="1" width="200" x="102" y="110"/>
<text font-family="Lucida Grande" font-size="13" x="177" y="124">
Member</text>
<rect fill="#000000" height="1" stroke="#000000" stroke-width="1" width="200" x="102" y="134"/>
<text font-family="Lucida Grande" font-size="13" x="106" y="149">
id : Integer</text>
<text font-family="Lucida Grande" font-size="13" x="106" y="166">
pseudo : String</text>
<text font-family="Lucida Grande" font-size="13" x="106" y="183">
email : String</text>
<text font-family="Lucida Grande" font-size="13" x="106" y="200">
password : Integer</text>
<text font-family="Lucida Grande" font-size="13" x="106" y="217">
customer_reputation : Integer</text>
<text font-family="Lucida Grande" font-size="13" x="106" y="234">
cook_reputation : Boolean</text>
<polyline fill="none" points="198,262 198,398" stroke="#000000" stroke-width="1"/>
<line fill="#000000" stroke="#000000" stroke-width="1" x1="191" x2="198" y1="386" y2="398"/>
<line fill="#000000" stroke="#000000" stroke-width="1" x1="205" x2="198" y1="386" y2="398"/>
<text font-family="Lucida Grande" font-size="13" x="105" y="335">
takes</text>
<text font-family="Lucida Grande" font-size="13" x="162" y="289">
1..*</text>
<text font-family="Lucida Grande" font-size="13" x="158" y="379">
0..*</text>
<ellipse cx="200" cy="330" fill="#000000" rx="0.5" ry="0.5" stroke="#000000" stroke-width="1"/>
<ellipse cx="201" cy="331" fill="#ffffff" rx="-0.5" ry="-0.5" stroke="#ffffff" stroke-width="1"/>
<rect fill="#ffffff" height="104" stroke="#ffffff" stroke-width="1" width="207" x="743" y="398"/>
<rect fill="none" height="104" stroke="#000000" stroke-width="1" width="207" x="743" y="398"/>
<text font-family="Lucida Grande" font-size="13" x="803" y="412">
Metro_station</text>
<rect fill="#000000" height="1" stroke="#000000" stroke-width="1" width="207" x="743" y="422"/>
<text font-family="Lucida Grande" font-size="13" x="747" y="437">
id : Integer</text>
<text font-family="Lucida Grande" font-size="13" x="747" y="454">
name : String</text>
<polyline fill="none" points="622,438 743,438" stroke="#000000" stroke-width="1"/>
<line fill="#000000" stroke="#000000" stroke-width="1" x1="731" x2="743" y1="445" y2="438"/>
<line fill="#000000" stroke="#000000" stroke-width="1" x1="731" x2="743" y1="431" y2="438"/>
<text font-family="Lucida Grande" font-size="13" x="642" y="411">
happens at</text>
<text font-family="Lucida Grande" font-size="13" x="626" y="433">
0..*</text>
<text font-family="Lucida Grande" font-size="13" x="735" y="431">
1</text>
<rect fill="#ffffff" height="152" stroke="#ffffff" stroke-width="1" width="202" x="750" y="110"/>
<rect fill="none" height="152" stroke="#000000" stroke-width="1" width="202" x="750" y="110"/>
<text font-family="Lucida Grande" font-size="13" x="818" y="124">
Metro_line</text>
<rect fill="#000000" height="1" stroke="#000000" stroke-width="1" width="202" x="750" y="134"/>
<text font-family="Lucida Grande" font-size="13" x="754" y="149">
id : Integer</text>
<text font-family="Lucida Grande" font-size="13" x="754" y="166">
number : String</text>
<text font-family="Lucida Grande" font-size="13" x="754" y="183">
metro_stations : Metro_station</text>
<polyline fill="none" points="831,262 831,398" stroke="#000000" stroke-width="1"/>
<line fill="#000000" stroke="#000000" stroke-width="1" x1="824" x2="831" y1="386" y2="398"/>
<line fill="#000000" stroke="#000000" stroke-width="1" x1="838" x2="831" y1="386" y2="398"/>
<text font-family="Lucida Grande" font-size="13" x="738" y="335">
owns</text>
<text font-family="Lucida Grande" font-size="13" x="844" y="289">
1..*</text>
<text font-family="Lucida Grande" font-size="13" x="848" y="387">
1..*</text>
<polyline fill="none" points="526,398 526,262" stroke="#000000" stroke-width="1"/>
<line fill="#000000" stroke="#000000" stroke-width="1" x1="533" x2="526" y1="274" y2="262"/>
<line fill="#000000" stroke="#000000" stroke-width="1" x1="519" x2="526" y1="274" y2="262"/>
<text font-family="Lucida Grande" font-size="13" x="420" y="337">
is cooked with</text>
<text font-family="Lucida Grande" font-size="13" x="498" y="381">
0..*</text>
<text font-family="Lucida Grande" font-size="13" x="505" y="296">
1</text>
<polyline fill="none" points="430,150 302,150" stroke="#000000" stroke-width="1"/>
<line fill="#000000" stroke="#000000" stroke-width="1" x1="314" x2="302" y1="143" y2="150"/>
<line fill="#000000" stroke="#000000" stroke-width="1" x1="314" x2="302" y1="157" y2="150"/>
<text font-family="Lucida Grande" font-size="13" x="330" y="106">
belongs to</text>
<text font-family="Lucida Grande" font-size="13" x="404" y="145">
0..*</text>
<text font-family="Lucida Grande" font-size="13" x="313" y="145">
1</text>
<polyline fill="none" points="102,126 14,126 126,14 126,110" stroke="#000000" stroke-width="1"/>
<line fill="#000000" stroke="#000000" stroke-width="1" x1="119" x2="126" y1="98" y2="110"/>
<line fill="#000000" stroke="#000000" stroke-width="1" x1="133" x2="126" y1="98" y2="110"/>
<text font-family="Lucida Grande" font-size="13" x="70" y="94">
ranks</text>
<text font-family="Lucida Grande" font-size="13" x="64" y="149">
0..*</text>
<text font-family="Lucida Grande" font-size="13" x="140" y="94">
0..*</text>
</svg>
