<?xml version="1.0" encoding="utf-8" ?>
<!DOCTYPE svg PUBLIC "-//W3C//DTD SVG 1.1//EN" "http://www.w3.org/Graphics/SVG/1.1/DTD/svg11.dtd">
<svg height="693" version="1.1" width="933" xmlns="http://www.w3.org/2000/svg">
<rect fill="#ffffff" height="169" stroke="#ffffff" stroke-width="1" width="192" x="430" y="510"/>
<rect fill="none" height="169" stroke="#000000" stroke-width="1" width="192" x="430" y="510"/>
<text font-family="Lucida Grande" font-size="13" x="504" y="524">
Course</text>
<rect fill="#000000" height="1" stroke="#000000" stroke-width="1" width="192" x="430" y="534"/>
<text font-family="Lucida Grande" font-size="13" x="434" y="549">
id : Integer</text>
<text font-family="Lucida Grande" font-size="13" x="434" y="566">
date : Integer</text>
<text font-family="Lucida Grande" font-size="13" x="434" y="583">
date_range : Integer</text>
<text font-family="Lucida Grande" font-size="13" x="434" y="600">
comment : String</text>
<text font-family="Lucida Grande" font-size="13" x="434" y="617">
max_portions : Integer</text>
<text font-family="Lucida Grande" font-size="13" x="434" y="634">
reserved_portions : Integer</text>
<text font-family="Lucida Grande" font-size="13" x="434" y="651">
id_recipe : Integer</text>
<text font-family="Lucida Grande" font-size="13" x="434" y="668">
id_metro_station : Integer</text>
<rect fill="#ffffff" height="104" stroke="#ffffff" stroke-width="1" width="192" x="430" y="110"/>
<rect fill="none" height="104" stroke="#000000" stroke-width="1" width="192" x="430" y="110"/>
<text font-family="Lucida Grande" font-size="13" x="505" y="124">
Recipe</text>
<rect fill="#000000" height="1" stroke="#000000" stroke-width="1" width="192" x="430" y="134"/>
<text font-family="Lucida Grande" font-size="13" x="434" y="149">
id : Integer</text>
<text font-family="Lucida Grande" font-size="13" x="434" y="166">
title : String</text>
<text font-family="Lucida Grande" font-size="13" x="434" y="183">
ingredients : String</text>
<text font-family="Lucida Grande" font-size="13" x="434" y="200">
id_owner : Integer</text>
<rect fill="#ffffff" height="160" stroke="#ffffff" stroke-width="1" width="192" x="110" y="518"/>
<rect fill="none" height="160" stroke="#000000" stroke-width="1" width="192" x="110" y="518"/>
<text font-family="Lucida Grande" font-size="13" x="169" y="532">
Reservation</text>
<rect fill="#000000" height="1" stroke="#000000" stroke-width="1" width="192" x="110" y="542"/>
<text font-family="Lucida Grande" font-size="13" x="114" y="557">
id : Integer</text>
<text font-family="Lucida Grande" font-size="13" x="114" y="574">
coupon : String</text>
<text font-family="Lucida Grande" font-size="13" x="114" y="591">
rating : Integer</text>
<text font-family="Lucida Grande" font-size="13" x="114" y="608">
id_member : Integer</text>
<text font-family="Lucida Grande" font-size="13" x="114" y="625">
id_course : Integer</text>
<polyline fill="none" points="302,552 430,552" stroke="#000000" stroke-width="1"/>
<line fill="#000000" stroke="#000000" stroke-width="1" x1="418" x2="430" y1="559" y2="552"/>
<line fill="#000000" stroke="#000000" stroke-width="1" x1="418" x2="430" y1="545" y2="552"/>
<text font-family="Lucida Grande" font-size="13" x="332" y="534">
is made on</text>
<text font-family="Lucida Grande" font-size="13" x="306" y="547">
0..*</text>
<text font-family="Lucida Grande" font-size="13" x="411" y="547">
1</text>
<rect fill="#ffffff" height="152" stroke="#ffffff" stroke-width="1" width="196" x="102" y="110"/>
<rect fill="none" height="152" stroke="#000000" stroke-width="1" width="196" x="102" y="110"/>
<text font-family="Lucida Grande" font-size="13" x="175" y="124">
Member</text>
<rect fill="#000000" height="1" stroke="#000000" stroke-width="1" width="196" x="102" y="134"/>
<text font-family="Lucida Grande" font-size="13" x="106" y="149">
id : Integer</text>
<text font-family="Lucida Grande" font-size="13" x="106" y="166">
pseudo : String</text>
<text font-family="Lucida Grande" font-size="13" x="106" y="183">
email : String</text>
<text font-family="Lucida Grande" font-size="13" x="106" y="200">
password : Integer</text>
<text font-family="Lucida Grande" font-size="13" x="106" y="217">
customer_reputation : Integer</text>
<text font-family="Lucida Grande" font-size="13" x="106" y="234">
cook_reputation : Boolean</text>
<polyline fill="none" points="198,262 198,518" stroke="#000000" stroke-width="1"/>
<line fill="#000000" stroke="#000000" stroke-width="1" x1="191" x2="198" y1="506" y2="518"/>
<line fill="#000000" stroke="#000000" stroke-width="1" x1="205" x2="198" y1="506" y2="518"/>
<text font-family="Lucida Grande" font-size="13" x="105" y="395">
takes</text>
<text font-family="Lucida Grande" font-size="13" x="162" y="289">
1..*</text>
<text font-family="Lucida Grande" font-size="13" x="158" y="499">
0..*</text>
<ellipse cx="200" cy="390" fill="#000000" rx="0.5" ry="0.5" stroke="#000000" stroke-width="1"/>
<ellipse cx="201" cy="391" fill="#ffffff" rx="-0.5" ry="-0.5" stroke="#ffffff" stroke-width="1"/>
<rect fill="#ffffff" height="104" stroke="#ffffff" stroke-width="1" width="168" x="751" y="510"/>
<rect fill="none" height="104" stroke="#000000" stroke-width="1" width="168" x="751" y="510"/>
<text font-family="Lucida Grande" font-size="13" x="791" y="524">
Metro_station</text>
<rect fill="#000000" height="1" stroke="#000000" stroke-width="1" width="168" x="751" y="534"/>
<text font-family="Lucida Grande" font-size="13" x="755" y="549">
id : Integer</text>
<text font-family="Lucida Grande" font-size="13" x="755" y="566">
name : String</text>
<polyline fill="none" points="622,550 751,550" stroke="#000000" stroke-width="1"/>
<line fill="#000000" stroke="#000000" stroke-width="1" x1="739" x2="751" y1="557" y2="550"/>
<line fill="#000000" stroke="#000000" stroke-width="1" x1="739" x2="751" y1="543" y2="550"/>
<text font-family="Lucida Grande" font-size="13" x="646" y="523">
happens at</text>
<text font-family="Lucida Grande" font-size="13" x="626" y="545">
0..*</text>
<text font-family="Lucida Grande" font-size="13" x="743" y="543">
1</text>
<rect fill="#ffffff" height="96" stroke="#ffffff" stroke-width="1" width="168" x="750" y="110"/>
<rect fill="none" height="96" stroke="#000000" stroke-width="1" width="168" x="750" y="110"/>
<text font-family="Lucida Grande" font-size="13" x="801" y="124">
Metro_line</text>
<rect fill="#000000" height="1" stroke="#000000" stroke-width="1" width="168" x="750" y="134"/>
<text font-family="Lucida Grande" font-size="13" x="754" y="149">
id : Integer</text>
<text font-family="Lucida Grande" font-size="13" x="754" y="166">
number : String</text>
<text font-family="Lucida Grande" font-size="13" x="754" y="183">
id_metro_station : Array</text>
<polyline fill="none" points="831,206 831,510" stroke="#000000" stroke-width="1"/>
<line fill="#000000" stroke="#000000" stroke-width="1" x1="824" x2="831" y1="498" y2="510"/>
<line fill="#000000" stroke="#000000" stroke-width="1" x1="838" x2="831" y1="498" y2="510"/>
<text font-family="Lucida Grande" font-size="13" x="738" y="363">
owns</text>
<text font-family="Lucida Grande" font-size="13" x="844" y="233">
1..*</text>
<text font-family="Lucida Grande" font-size="13" x="848" y="499">
1..*</text>
<polyline fill="none" points="526,510 526,214" stroke="#000000" stroke-width="1"/>
<line fill="#000000" stroke="#000000" stroke-width="1" x1="533" x2="526" y1="226" y2="214"/>
<line fill="#000000" stroke="#000000" stroke-width="1" x1="519" x2="526" y1="226" y2="214"/>
<text font-family="Lucida Grande" font-size="13" x="420" y="369">
is cooked with</text>
<text font-family="Lucida Grande" font-size="13" x="498" y="493">
0..*</text>
<text font-family="Lucida Grande" font-size="13" x="505" y="248">
1</text>
<polyline fill="none" points="430,150 298,150" stroke="#000000" stroke-width="1"/>
<line fill="#000000" stroke="#000000" stroke-width="1" x1="310" x2="298" y1="143" y2="150"/>
<line fill="#000000" stroke="#000000" stroke-width="1" x1="310" x2="298" y1="157" y2="150"/>
<text font-family="Lucida Grande" font-size="13" x="328" y="106">
belongs to</text>
<text font-family="Lucida Grande" font-size="13" x="404" y="145">
0..*</text>
<text font-family="Lucida Grande" font-size="13" x="309" y="145">
1</text>
<polyline fill="none" points="102,126 14,126 126,14 126,110" stroke="#000000" stroke-width="1"/>
<line fill="#000000" stroke="#000000" stroke-width="1" x1="119" x2="126" y1="98" y2="110"/>
<line fill="#000000" stroke="#000000" stroke-width="1" x1="133" x2="126" y1="98" y2="110"/>
<text font-family="Lucida Grande" font-size="13" x="70" y="94">
ranks</text>
<text font-family="Lucida Grande" font-size="13" x="64" y="149">
0..*</text>
<text font-family="Lucida Grande" font-size="13" x="140" y="94">
0..*</text>
</svg>
